<?xml version="1.0" encoding="utf-8"?>
<!-- Generator: Adobe Illustrator 25.2.1, SVG Export Plug-In . SVG Version: 6.00 Build 0)  -->
<svg version="1.1" id="Layer_1" xmlns="http://www.w3.org/2000/svg" xmlns:xlink="http://www.w3.org/1999/xlink" x="0px" y="0px"
	 viewBox="0 0 48 48" style="enable-background:new 0 0 48 48;" xml:space="preserve">
<style type="text/css">
	.st0{fill:none;stroke:#344154;stroke-width:1.148;stroke-linecap:round;stroke-miterlimit:10;}
	.st1{fill:#FF6D3B;}
</style>
<g>
	<path class="st0" d="M28.98,33.49c1.58,4.11,2.77,8.11,3.53,10.96c0.5,1.87,2.92,2.42,4.16,0.92c5.78-6.97,6.3-14.51,6.17-18.03
		c-0.04-1.17,0.33-2.33,1.09-3.22c1.45-1.71,2.29-4.04,2.78-5.94c1.34-5.25-0.51-10.89-4.93-14.02c-2.13-1.51-4.73-2.39-7.54-2.39
		c-4.15,0-7.84,1.93-10.24,4.94c-2.4-3.01-6.09-4.94-10.24-4.94c-2.81,0-5.41,0.89-7.54,2.39C1.78,7.3-0.05,12.96,1.3,18.23
		c0.48,1.89,1.33,4.19,2.76,5.88c0.76,0.9,1.14,2.06,1.1,3.24c-0.13,3.52,0.39,11.05,6.15,18c1.25,1.5,3.67,0.98,4.17-0.91
		c0.76-2.85,1.95-6.84,3.53-10.95C20.77,28.92,27.22,28.92,28.98,33.49z"/>
	<path class="st0" d="M24,6.71c0,0,1.63,2.1,2.4,4.2"/>
	<path class="st1" d="M7.45,28.91c0.1,3.69,1.1,9.5,5.63,14.98c0.03,0.04,0.04,0.04,0.08,0.04c0.09,0,0.1-0.05,0.11-0.08
		c0.59-2.21,1.5-5.35,2.7-8.74C11.28,34.12,7.45,28.91,7.45,28.91z"/>
	<path class="st1" d="M40.55,28.91c-0.1,3.69-1.1,9.5-5.63,14.98c-0.03,0.04-0.04,0.04-0.08,0.04c-0.09,0-0.1-0.05-0.11-0.08
		c-0.59-2.21-1.5-5.35-2.7-8.74C36.72,34.12,40.55,28.91,40.55,28.91z"/>
</g>
</svg>
