<?xml version="1.0" encoding="utf-8"?>
<!-- Generator: Adobe Illustrator 25.2.1, SVG Export Plug-In . SVG Version: 6.00 Build 0)  -->
<svg version="1.1" id="Layer_1" xmlns="http://www.w3.org/2000/svg" xmlns:xlink="http://www.w3.org/1999/xlink" x="0px" y="0px"
	 viewBox="0 0 48 48" style="enable-background:new 0 0 48 48;" xml:space="preserve">
<style type="text/css">
	.st0{fill:none;stroke:#344154;stroke-width:1.0539;stroke-linecap:round;stroke-miterlimit:10;}
	.st1{fill:#FF6D3B;}
</style>
<g>
	<path class="st0" d="M17.95,10.4c0,0,4.56,0.7,10.97,0c0,0,0.72-0.07,1.94-0.23"/>
	<path class="st0" d="M12.63,19.18c0,0-1.81-9.69,3.63-14.49V1.69"/>
	<path class="st0" d="M19.66,1.69V4.4c0,0,4.35,0.58,4.35,6.32"/>
	<path class="st0" d="M30.86,14.14c-1.16,0.15-1.98,0.25-1.98,0.25c-3.02,0.27-5.32,0.35-5.32,0.35c-0.03,3.62,0.81,5.83,0.9,6.06
		c0.01,0.01,0.02,0.02,0.03,0.03l0,0c2.98,1.25,5.25,3.74,6.2,6.79c0,0,0.97,3.51,0.59,7.97c-0.17,2.04-0.71,4.03-1.5,5.93
		c-0.46,1.11-0.92,1.98-1.36,2.65c-1.03,1.6-2.92,2.41-4.79,2.07c-6.07-1.08-12.13-6.95-12.13-6.95c-1.54-1.55-2.64-3.04-3.42-4.45
		c-2.47-4.47-1.49-10.06,2.23-13.55l1.56-1.47c1.73-1.63,4.17-2.29,6.49-1.73c0.03,0.01,0.04,0.01,0.04,0.01
		c1.06-1.78,1.22-3.6,1.22-3.6s-0.38-0.04-0.88-0.12c-1.01-0.16-1.72-1.1-1.58-2.11c0.32-2.28,1.64-4.01,1.64-4.01"/>
	<path class="st0" d="M6.72,29.59C-0.68,23,2.81,17.45,3.79,16.16c0.28-0.36,0.55-0.72,0.78-1.1c2.52-4.13,1.84-8.21,1.84-8.21"/>
	<path class="st0" d="M10.27,6.84c0,0-0.76,5.25,2.21,6.04"/>
	<path class="st0" d="M20,27.13c0,0,0.44,3.07,4.63,5.15"/>
	<path class="st0" d="M18.39,18.08c0,0-5.19,8.19-0.6,13.44"/>
	<path class="st0" d="M22.32,30.75c0,0-2.96,3.79,1.45,6.24"/>
	<polyline class="st0" points="45.89,28.41 39.3,29.18 42.56,31.66 36.28,32.34 	"/>
	<polyline class="st0" points="44.73,40.51 39.01,37.14 40.11,41.09 34.7,37.84 	"/>
	<polyline class="st0" points="40.7,18.17 35.31,22.05 39.36,22.63 34.21,26.27 	"/>
	<path class="st1" d="M12.96,37.8c0.29,0.27,5.79,5.45,11.04,6.39c0.16,0.03,0.32,0.04,0.47,0.04c0.89,0,1.72-0.44,2.21-1.19
		c0.42-0.65,0.81-1.43,1.18-2.31c0.7-1.7,1.15-3.5,1.35-5.36c-0.38,0.76-0.77,1.43-1.17,2.02c-1.94,2.85-5.57,3.68-8.75,2.36
		c-6.68-2.75-10.27-8.78-10.4-8.98c0.15,1.05,0.48,2.09,1.01,3.06C10.63,35.15,11.66,36.49,12.96,37.8z"/>
</g>
</svg>
