<?xml version="1.0" encoding="utf-8"?>
<!-- Generator: Adobe Illustrator 25.2.1, SVG Export Plug-In . SVG Version: 6.00 Build 0)  -->
<svg version="1.1" id="Layer_1" xmlns="http://www.w3.org/2000/svg" xmlns:xlink="http://www.w3.org/1999/xlink" x="0px" y="0px"
	 viewBox="0 0 48 48" style="enable-background:new 0 0 48 48;" xml:space="preserve">
<style type="text/css">
	.st0{fill:none;stroke:#344154;stroke-width:1.0726;stroke-linecap:round;stroke-miterlimit:10;}
	.st1{fill:#FF6D3B;}
</style>
<g>
	<path class="st0" d="M34.89,28.79c-2.71-0.31-4.32,1.41-5.2,2.93c-0.87,1.5-1.2,3.26-0.79,4.95c0.5,2.08,1.9,3.31,3.22,4.04
		c1.74,0.96,3.78,1.24,5.73,0.9c4.22-0.75,6.53-4.21,7.78-7.34c1.42-3.56,1.76-7.47,1.06-11.23c-0.77-4.13-2.61-6.54-4.2-7.91
		c-1.64-1.41-3.81-2.1-5.96-1.84c-1.29,0.15-2.28,0.61-3.03,1.19c0,0-1.4,1.06-1.47,2.66c-0.04,0.97,0.4,2.45,2.65,2.45"/>
	<path class="st0" d="M26.34,6.25l0.19,8.45c0.02,0.86,0.23,1.71,0.67,2.45c0.59,0.98,1.42,1.55,2.48,1.83"/>
	<path class="st0" d="M13.11,28.79c2.71-0.31,4.32,1.41,5.2,2.93c0.87,1.5,1.2,3.26,0.79,4.95c-0.5,2.08-1.9,3.31-3.22,4.04
		c-1.74,0.96-3.78,1.24-5.73,0.9c-4.22-0.75-6.53-4.21-7.78-7.34c-1.42-3.56-1.76-7.47-1.06-11.23c0.77-4.13,2.61-6.54,4.2-7.91
		c1.64-1.41,3.81-2.1,5.96-1.84c1.29,0.15,2.28,0.61,3.03,1.19c0,0,1.4,1.06,1.47,2.66c0.04,0.97-0.4,2.45-2.65,2.45"/>
	<path class="st0" d="M21.66,6.25l-0.19,8.45c-0.02,0.86-0.23,1.71-0.67,2.45c-0.59,0.98-1.42,1.55-2.48,1.83"/>
	<path class="st0" d="M13.11,28.79c4.25,0,6.88-1.22,8.48-2.57c1.38-1.16,3.43-1.16,4.81,0c1.6,1.35,4.23,2.57,8.48,2.57"/>
	<g>
		<path class="st1" d="M34.89,34.29c-1.31,0-2.57-0.25-3.73-0.7c-0.32,0.85-0.39,1.74-0.18,2.57c0.28,1.14,0.99,2.01,2.17,2.67
			c1.26,0.7,2.8,0.93,4.32,0.66c2.68-0.47,4.75-2.5,6.16-6.02c0.89-2.23,1.31-4.62,1.25-7.05C43.79,30.94,39.73,34.29,34.89,34.29z"
			/>
	</g>
	<g>
		<path class="st1" d="M13.11,34.29c1.31,0,2.57-0.25,3.73-0.7c0.32,0.85,0.39,1.74,0.18,2.57c-0.28,1.14-0.99,2.01-2.17,2.67
			c-1.26,0.7-2.8,0.93-4.32,0.66c-2.68-0.47-4.75-2.5-6.16-6.02c-0.89-2.23-1.31-4.62-1.25-7.05C4.21,30.94,8.27,34.29,13.11,34.29z
			"/>
	</g>
	<line class="st0" x1="24" y1="22.68" x2="24" y2="18.98"/>
</g>
</svg>
