<?xml version="1.0" encoding="utf-8"?>
<!-- Generator: Adobe Illustrator 25.2.1, SVG Export Plug-In . SVG Version: 6.00 Build 0)  -->
<svg version="1.1" id="Layer_1" xmlns="http://www.w3.org/2000/svg" xmlns:xlink="http://www.w3.org/1999/xlink" x="0px" y="0px"
	 viewBox="0 0 48 48" style="enable-background:new 0 0 48 48;" xml:space="preserve">
<style type="text/css">
	.st0{fill:none;stroke:#344154;stroke-width:1.0651;stroke-linecap:round;stroke-linejoin:round;stroke-miterlimit:10;}
	.st1{fill:#FF6D3B;}
</style>
<g>
	<g>
		<path class="st0" d="M45.74,34.58c0,0-2.13,3.04-7.67,3.04"/>
	</g>
	<path class="st0" d="M42.78,28.48c0,0-1.22,1.77-4.14,1.92"/>
	<path class="st0" d="M42.89,28.25c-2.67-9.36-5.91-12.97-7.94-14.37c-1.41-0.96-3.39-0.58-4.3,0.87c-0.5,0.8-0.92,1.78-1.26,2.76
		c-0.17,0.5-0.33,1-0.47,1.51l0,0l-1.28-1.03c-1.32-1.05-1.72-2.65-1.72-4.34V3.6"/>
	<path class="st0" d="M42.89,28.25"/>
	<path class="st1" d="M33.71,15.69c-0.19-0.13-0.44-0.18-0.68-0.13c-0.13,0.03-0.37,0.11-0.52,0.35c-0.36,0.57-0.71,1.36-1.05,2.32
		c-0.09,0.25-0.17,0.51-0.25,0.78c0.02,0.01,5.1,1.56,8.51,6.48C37.43,19.04,35.04,16.6,33.71,15.69z"/>
	<g>
		<path class="st0" d="M2.26,34.58c0,0,2.13,3.04,7.67,3.04"/>
	</g>
	<path class="st0" d="M5.22,28.48c0,0,1.22,1.77,4.14,1.92"/>
	<path class="st0" d="M5.11,28.25c2.67-9.36,5.91-12.97,7.94-14.37c1.41-0.96,3.39-0.58,4.3,0.87c0.5,0.8,0.92,1.78,1.26,2.76
		c0.17,0.5,0.33,1,0.47,1.51l0,0l1.28-1.03c1.32-1.05,1.72-2.65,1.72-4.34V3.6"/>
	<path class="st0" d="M5.11,28.25"/>
	<path class="st1" d="M14.29,15.69c0.19-0.13,0.44-0.18,0.68-0.13c0.13,0.03,0.37,0.11,0.52,0.35c0.36,0.57,0.71,1.36,1.05,2.32
		c0.09,0.25,0.17,0.51,0.25,0.78c-0.02,0.01-5.1,1.56-8.51,6.48C10.57,19.04,12.96,16.6,14.29,15.69z"/>
	<path class="st0" d="M5.11,28.25c0,0-7.72,12.83-0.74,15.73c0.7,0.29,1.47,0.41,2.23,0.42c1.68,0.01,3.4-0.13,6.52-0.46
		c2.5-0.27,4.48-2.58,5.05-5.02c0.81-3.47,1.85-8.3,1.75-13.71c0-0.09-0.01-0.2-0.01-0.31c-0.06-1.53,0.61-3,1.82-3.94l0,0
		c0.67-0.52,1.47-0.78,2.27-0.78c0.8,0,1.6,0.26,2.27,0.78l0,0c1.21,0.94,1.88,2.41,1.82,3.94c0,0.11-0.01,0.21-0.01,0.31
		c-0.1,5.41,0.94,10.24,1.75,13.71c0.57,2.44,2.56,4.76,5.05,5.02c3.12,0.33,4.84,0.47,6.52,0.46c0.76,0,1.52-0.13,2.23-0.42
		c6.98-2.9-0.74-15.73-0.74-15.73"/>
</g>
</svg>
