<?xml version="1.0" encoding="utf-8"?>
<!-- Generator: Adobe Illustrator 25.2.1, SVG Export Plug-In . SVG Version: 6.00 Build 0)  -->
<svg version="1.1" id="Layer_1" xmlns="http://www.w3.org/2000/svg" xmlns:xlink="http://www.w3.org/1999/xlink" x="0px" y="0px"
	 viewBox="0 0 48 48" style="enable-background:new 0 0 48 48;" xml:space="preserve">
<style type="text/css">
	.st0{fill:none;stroke:#344154;stroke-width:1.0538;stroke-miterlimit:10;}
	.st1{fill:#FF6D3B;}
	.st2{fill:none;stroke:#344154;stroke-width:1.0538;stroke-linecap:round;stroke-miterlimit:10;}
</style>
<g>
	<path class="st0" d="M37.22,5.27c-1.51,1.81-1.64,4.19-0.29,5.32c1.35,1.13,3.67,0.58,5.18-1.23c1.51-1.81,1.64-4.19,0.29-5.32
		C41.06,2.91,38.73,3.46,37.22,5.27z"/>
	<path class="st1" d="M38.72,6.77c-0.37,0.49-0.59,1.03-0.62,1.53c-0.02,0.31,0.05,0.57,0.18,0.67c0.08,0.06,0.2,0.1,0.36,0.1h0
		c0.45,0,1.2-0.28,1.86-1.06c0.26-0.31,0.44-0.63,0.56-0.92C40.21,7.29,39.38,7.2,38.72,6.77z"/>
	<path class="st2" d="M19.82,7.77l0.12-0.11c0.79-0.78,2.41-2.09,4.41-2.09c2,0,3.62,1.31,4.41,2.09"/>
	<path class="st2" d="M43.63,2.54c1.06-1.05,2.51-0.67,2.98,0.65c0.76,2.15,0.74,6.93-3.3,10.24c-1.24,1.02-2.85,1.48-4.45,1.64
		c-2.52,0.25-6.81-0.09-11.02-3.96c-0.2-0.18-0.38-0.37-0.57-0.56c-0.44-0.44-1.63-1.48-2.92-1.48c-1.3,0-2.49,1.05-2.92,1.48
		c-0.19,0.19-0.38,0.38-0.57,0.56c-4.21,3.87-8.5,4.2-11.02,3.96c-1.6-0.16-3.21-0.62-4.45-1.64c-4.04-3.32-4.05-8.09-3.3-10.24
		c0.47-1.33,1.91-1.7,2.98-0.65"/>
	<ellipse transform="matrix(0.767 -0.6416 0.6416 0.767 -2.5911 7.4869)" class="st0" cx="9.01" cy="7.31" rx="3.19" ry="4.27"/>
	<path class="st1" d="M9.96,6.77c0.37,0.49,0.59,1.03,0.62,1.53c0.02,0.31-0.05,0.57-0.18,0.67c-0.08,0.06-0.2,0.1-0.36,0.1h0
		C9.6,9.07,8.84,8.79,8.18,8C7.92,7.69,7.74,7.38,7.63,7.08C8.47,7.29,9.31,7.2,9.96,6.77z"/>
	<path class="st2" d="M13.96,14.82c0,0,2.85,0.49,3.49,6.73c0.13,1.27,0.45,2.52,1.01,3.67c0.32,0.66,0.74,1.36,1.3,1.99
		c0,0-0.86,5.52,0.83,7.8l-0.22,0.26c-0.71,0.86-0.93,2.01-0.61,3.08l2.17,7.05h2.4"/>
	<path class="st2" d="M34.72,14.82c0,0-2.85,0.49-3.49,6.73c-0.13,1.27-0.45,2.52-1.01,3.67c-0.32,0.66-0.74,1.36-1.3,1.99
		c0,0,0.86,5.52-0.83,7.8l0.22,0.26c0.71,0.86,0.93,2.01,0.61,3.08l-2.17,7.05h-2.4"/>
	<path class="st1" d="M19.63,21.9c2.57-2.67,6.17-4.34,10.17-4.34c0.03,0,0.07,0,0.1,0c0.25-0.75,0.54-1.38,0.85-1.92
		c-1.42-0.69-2.9-1.64-4.35-2.98c-0.18-0.16-0.35-0.33-0.52-0.5l-0.12-0.12c-0.57-0.57-1.16-0.87-1.44-0.87
		c-0.27,0-0.87,0.3-1.44,0.87l-0.11,0.11c-0.17,0.17-0.34,0.34-0.52,0.51c-1.46,1.34-2.93,2.3-4.35,2.98
		c0.74,1.27,1.37,3.08,1.63,5.68C19.57,21.53,19.6,21.71,19.63,21.9z"/>
	<path class="st2" d="M20.59,35.01c0,0,1.14,0.85,2.78,0.85"/>
	<path class="st2" d="M28.09,35.01c0,0-1.14,0.85-2.78,0.85"/>
	<line class="st2" x1="24.34" y1="32.64" x2="24.34" y2="26.67"/>
</g>
</svg>
